<?xml version="1.0" encoding="UTF-8" standalone="no"?>
<svg
   xmlns:dc="http://purl.org/dc/elements/1.1/"
   xmlns:cc="http://creativecommons.org/ns#"
   xmlns:rdf="http://www.w3.org/1999/02/22-rdf-syntax-ns#"
   xmlns:svg="http://www.w3.org/2000/svg"
   xmlns="http://www.w3.org/2000/svg"
   xmlns:sodipodi="http://sodipodi.sourceforge.net/DTD/sodipodi-0.dtd"
   xmlns:inkscape="http://www.inkscape.org/namespaces/inkscape"
   width="152"
   height="94"
   fill="none"
   version="1.1"
   id="svg6"
   sodipodi:docname="offen-logo-white.svg"
   inkscape:version="0.92.4 (5da689c313, 2019-01-14)">
  <metadata
     id="metadata12">
    <rdf:RDF>
      <cc:Work
         rdf:about="">
        <dc:format>image/svg+xml</dc:format>
        <dc:type
           rdf:resource="http://purl.org/dc/dcmitype/StillImage" />
        <dc:title></dc:title>
      </cc:Work>
    </rdf:RDF>
  </metadata>
  <defs
     id="defs10" />
  <sodipodi:namedview
     pagecolor="#ffffff"
     bordercolor="#666666"
     borderopacity="1"
     objecttolerance="10"
     gridtolerance="10"
     guidetolerance="10"
     inkscape:pageopacity="0"
     inkscape:pageshadow="2"
     inkscape:window-width="1491"
     inkscape:window-height="885"
     id="namedview8"
     showgrid="false"
     inkscape:zoom="3.7368421"
     inkscape:cx="21.007044"
     inkscape:cy="-0.90140728"
     inkscape:window-x="74"
     inkscape:window-y="55"
     inkscape:window-maximized="0"
     inkscape:current-layer="svg6" />
  <g
     style="fill:none"
     id="g56"
     transform="matrix(0.10297919,0,0,0.10297919,19.224667,26.561183)">
    <path
       id="path30"
       d="M 153.928,0.980277 C 135.206,3.44223 116.087,5.27647 98.1847,12.0183 89.6225,15.2466 82.4126,21.1243 74.7209,25.9504 61.7043,34.1026 48.0537,42.858 37.7333,54.377 28.0891,65.146 21.1666,79.1107 15.9684,92.5047 9.95879,108.002 4.51546,124.991 2.14879,141.418 c -1.04809,7.263 -2.484997,14.038 -1.57214,21.513 3.0175,24.873 19.33905,40.566 40.89265,51.082 13.0927,6.391 24.2752,9.897 39.1176,8.413 5.2489,-0.53 10.3964,-1.981 15.6453,-2.617 6.9308,-0.84 14.8508,-0.946 21.5118,-2.992 4.606,-1.418 8.376,-4.239 12.72,-6.187 10.929,-4.883 21.596,-9.457 32.272,-14.943 12.298,-6.334 25.881,-11.348 37.156,-19.541 14.783,-10.753 26.422,-29.079 34.114,-45.489 2.637,-5.625 3.787,-11.658 5.426,-17.609 6.002,-21.8884 8.402,-45.0813 -0.752,-66.5134 C 234.505,36.752 227.861,29.5129 220.431,22.0863 215.385,17.0319 210.187,12.0183 203.806,8.65147 196.503,4.7955 187.374,3.59713 179.361,2.21126 170.892,0.743864 162.566,-0.152874 153.928,0.98843 Z"
       inkscape:connector-curvature="0"
       style="fill:#ffffff" />
    <path
       id="path32"
       d="m 275.197,18.5901 c 1.758,6.0897 5.038,11.7147 7.388,17.6087 4.429,11.0707 7.683,22.4919 9.804,34.231 5.241,29.0381 2.367,61.1412 -7.421,89.0052 -5.198,14.788 -12.831,28.72 -19.119,43.036 -9.974,22.703 -18.342,45.994 -39.549,60.847 -4.218,2.96 -9.086,4.24 -13.693,6.424 -13.076,6.229 -28.586,12.367 -43.022,14.625 -5.19,0.816 -10.38,-1.174 -15.654,-0.424 -19.246,2.74 -37.005,6.84 -56.7157,5.487 -22.1452,-1.516 -45.1864,-7.973 -64.5508,-18.913 -6.4114,-3.581 -12.6136,-7.5 -18.5783,-11.739 -4.51359,-3.245 -8.53692,-7.182 -13.692873,-9.359 3.719043,8.348 11.495273,12.986 17.437273,19.565 13.5069,14.951 27.0899,29.78 42.2365,43.158 15.7553,13.907 30.4709,31.337 50.8409,38.649 12.527,4.5 25.028,5.405 38.137,6.302 10.929,0.75 22.272,1.818 33.252,0.717 20.759,-2.07 40.994,-10.948 59.657,-19.752 14.69,-6.938 29.101,-13.59 40.909,-25.24 21.064,-20.788 34.004,-45.048 44.95,-72.203 6.238,-15.473 12.045,-31.166 13.718,-47.935 1.099,-10.9 -0.566,-23.315 -1.622,-34.223 -2.147,-22.231 -6.872,-42.962 -15.688,-63.5788 C 319.116,82.9271 312.142,72.1662 306.386,60.6391 301.176,50.31 294.949,40.4877 287.791,31.3075 284.157,26.5793 280.708,21.2233 275.197,18.5901 Z"
       inkscape:connector-curvature="0"
       style="fill:#ffffff" />
    <path
       id="path34"
       d="m 525.14,298 c -22.883,0 -40.574,-5.984 -53.072,-17.952 -12.499,-12.144 -19.1,-30.36 -19.804,-54.648 -0.176,-5.28 -0.264,-12.76 -0.264,-22.44 0,-9.68 0.088,-17.072 0.264,-22.176 0.704,-23.936 7.481,-42.064 20.332,-54.384 13.026,-12.32 30.541,-18.48 52.544,-18.48 22.004,0 39.431,6.16 52.281,18.48 12.85,12.32 19.627,30.448 20.331,54.384 0.352,10.208 0.529,17.6 0.529,22.176 0,4.4 -0.177,11.88 -0.529,22.44 -0.704,24.288 -7.305,42.504 -19.803,54.648 C 565.627,292.016 548.024,298 525.14,298 Z m 0,-21.912 c 14.083,0 25.349,-4.224 33.798,-12.672 8.449,-8.624 13.026,-21.736 13.73,-39.336 0.352,-10.56 0.528,-17.6 0.528,-21.12 0,-3.872 -0.176,-10.912 -0.528,-21.12 -0.704,-17.6 -5.281,-30.712 -13.73,-39.336 -8.449,-8.624 -19.715,-12.936 -33.798,-12.936 -14.082,0 -25.436,4.312 -34.061,12.936 -8.45,8.624 -12.938,21.736 -13.467,39.336 -0.176,5.104 -0.264,12.144 -0.264,21.12 0,8.8 0.088,15.84 0.264,21.12 0.529,17.6 5.017,30.712 13.467,39.336 8.449,8.448 19.803,12.672 34.061,12.672 z"
       inkscape:connector-curvature="0"
       style="fill:#ffffff" />
    <path
       id="path36"
       d="m 653.678,295.36 c -1.76,0 -3.256,-0.528 -4.489,-1.584 -1.056,-1.232 -1.584,-2.728 -1.584,-4.488 v -110.88 h -22.708 c -1.76,0 -3.256,-0.528 -4.488,-1.584 -1.057,-1.056 -1.585,-2.464 -1.585,-4.224 v -8.448 c 0,-1.76 0.528,-3.168 1.585,-4.224 1.232,-1.232 2.728,-1.848 4.488,-1.848 h 22.708 v -13.2 c 0,-14.256 3.433,-25.256 10.298,-33 7.041,-7.92 18.483,-11.8802 34.326,-11.8802 h 15.578 c 1.76,0 3.169,0.6162 4.225,1.8482 1.232,1.056 1.848,2.464 1.848,4.224 v 8.448 c 0,1.76 -0.616,3.168 -1.848,4.224 -1.056,1.056 -2.465,1.584 -4.225,1.584 h -15.05 c -8.098,0 -13.731,2.112 -16.899,6.336 -3.169,4.224 -4.753,10.736 -4.753,19.536 v 11.88 h 56.769 v -13.2 c 0,-14.256 3.433,-25.256 10.298,-33 7.041,-7.92 18.483,-11.8802 34.326,-11.8802 h 15.578 c 1.761,0 3.169,0.6162 4.225,1.8482 1.056,1.056 1.584,2.464 1.584,4.224 v 8.448 c 0,1.76 -0.528,3.168 -1.584,4.224 -1.056,1.056 -2.464,1.584 -4.225,1.584 h -15.05 c -8.097,0 -13.73,2.112 -16.899,6.336 -3.168,4.224 -4.753,10.736 -4.753,19.536 v 11.88 h 34.062 c 1.76,0 3.169,0.616 4.225,1.848 1.056,1.056 1.584,2.464 1.584,4.224 v 8.448 c 0,1.76 -0.528,3.168 -1.584,4.224 -1.056,1.056 -2.465,1.584 -4.225,1.584 h -34.062 v 110.88 c 0,1.76 -0.616,3.256 -1.848,4.488 -1.056,1.056 -2.464,1.584 -4.225,1.584 h -11.618 c -1.76,0 -3.168,-0.528 -4.224,-1.584 -1.056,-1.232 -1.585,-2.728 -1.585,-4.488 v -110.88 h -56.769 v 110.88 c 0,1.76 -0.616,3.256 -1.848,4.488 -1.056,1.056 -2.465,1.584 -4.225,1.584 z"
       inkscape:connector-curvature="0"
       style="fill:#ffffff" />
    <path
       id="path38"
       d="m 866.704,298 c -17.955,0 -32.302,-5.544 -43.039,-16.632 -10.738,-11.264 -16.635,-26.576 -17.691,-45.936 l -0.264,-8.976 0.264,-8.712 c 1.056,-19.008 6.953,-34.144 17.691,-45.408 10.737,-11.264 25.084,-16.896 43.039,-16.896 19.363,0 34.325,6.16 44.887,18.48 10.738,12.32 16.107,29.04 16.107,50.16 v 4.752 c 0,1.76 -0.616,3.256 -1.848,4.488 -1.057,1.056 -2.465,1.584 -4.225,1.584 h -91.623 v 2.376 c 0.528,11.44 4.048,21.208 10.561,29.304 6.514,8.096 15.139,12.144 25.877,12.144 8.273,0 14.962,-1.584 20.067,-4.752 5.281,-3.344 9.242,-6.776 11.882,-10.296 1.584,-2.112 2.817,-3.344 3.697,-3.696 0.88,-0.528 2.376,-0.792 4.488,-0.792 h 11.618 c 1.585,0 2.905,0.44 3.961,1.32 1.232,0.88 1.848,2.024 1.848,3.432 0,3.872 -2.376,8.536 -7.129,13.992 -4.753,5.456 -11.53,10.208 -20.331,14.256 -8.626,3.872 -18.571,5.808 -29.837,5.808 z m 36.966,-81.048 v -0.792 c 0,-12.32 -3.345,-22.352 -10.034,-30.096 -6.689,-7.744 -15.666,-11.616 -26.932,-11.616 -11.442,0 -20.42,3.872 -26.933,11.616 -6.513,7.744 -9.769,17.776 -9.769,30.096 v 0.792 z"
       inkscape:connector-curvature="0"
       style="fill:#ffffff" />
    <path
       id="path40"
       d="m 965.877,295.36 c -1.76,0 -3.256,-0.528 -4.489,-1.584 -1.056,-1.232 -1.584,-2.728 -1.584,-4.488 V 164.152 c 0,-1.76 0.528,-3.168 1.584,-4.224 1.233,-1.232 2.729,-1.848 4.489,-1.848 h 11.354 c 1.936,0 3.432,0.528 4.489,1.584 1.056,1.056 1.584,2.552 1.584,4.488 v 11.616 c 5.281,-6.512 11.354,-11.528 18.216,-15.048 7.04,-3.52 15.76,-5.28 26.14,-5.28 16.9,0 30.02,5.456 39.35,16.368 9.33,10.736 13.99,24.992 13.99,42.768 v 74.712 c 0,1.76 -0.62,3.256 -1.85,4.488 -1.05,1.056 -2.46,1.584 -4.22,1.584 h -12.15 c -1.76,0 -3.26,-0.528 -4.49,-1.584 -1.05,-1.232 -1.58,-2.728 -1.58,-4.488 V 216.16 c 0,-12.672 -3.08,-22.528 -9.24,-29.568 -6.16,-7.04 -14.97,-10.56 -26.41,-10.56 -11.26,0 -20.24,3.608 -26.93,10.824 -6.689,7.04 -10.034,16.808 -10.034,29.304 v 73.128 c 0,1.76 -0.616,3.256 -1.848,4.488 -1.056,1.056 -2.465,1.584 -4.225,1.584 z"
       inkscape:connector-curvature="0"
       style="fill:#ffffff" />
  </g>
</svg>
