<svg width="152" height="94" fill="none" xmlns="http://www.w3.org/2000/svg"><path d="M16.944 64.989c-.37-2.118-1.402-3.097-3.096-2.938-.952.053-1.772.688-2.46 1.906-.953 1.852-1.376 4.26-1.27 7.225.159 2.912.37 5.029.635 6.352.317 1.27.847 2.382 1.587 3.335.424.741 1.059 1.085 1.905 1.032 1.482 0 2.567-1.243 3.255-3.731l.634-1.906c.265-.265.318-.53.16-.794.528-1.323.82-2.885.872-4.685-.529-.37-.846-.714-.952-1.032-.318-.9-.476-1.509-.476-1.826-.37-.265-.582-.768-.635-1.509-.053-.741-.106-1.217-.16-1.43zM2.419 72.453l.317-4.05c.37-3.652 1.482-6.776 3.334-9.37 1.8-2.17 4.339-3.281 7.62-3.334h.476c3.069 0 5.291.662 6.667 1.985 1.482 1.164 2.566 2.435 3.254 3.811.741 1.377 1.217 2.382 1.429 3.017.212.636.344 1.562.397 2.78.106 2.276-.344 3.573-1.35 3.89.741 5.029.292 9.026-1.349 11.99-.529 1.217-1.296 2.54-2.302 3.97-.74.953-2.063 1.482-3.968 1.588-1.905 0-3.572-.106-5-.318-1.376-.211-2.91-.873-4.604-1.985-1.693-1.164-2.884-3.043-3.572-5.637-.74-2.488-1.19-5.267-1.349-8.337zM50.98 56.97l1.587-.08c1.534 0 4.021-.344 7.46-1.032.106-.424.16-.9.16-1.43l.396-1.985c0-.529.159-1.482.476-2.858 0-.688.106-1.35.318-1.985 0-.53.08-1.218.238-2.065.159-.9.29-1.879.397-2.938.158-.211.238-.529.238-.952.053-.477.158-.98.317-1.509-1.428-.318-3.042-.53-4.841-.635-2.434.317-3.784.609-4.048.873-1.164 1.006-1.958 1.88-2.381 2.62-.477.794-1.032 2.091-1.667 3.891-.265.106-.476.53-.635 1.27-.106.848-.397 1.906-.873 3.177-.37 1.005-.688 2.17-.953 3.493-.264 1.27-.317 2.038-.158 2.303.529 0 .952-.026 1.27-.08.37-.37 1.27-.396 2.698-.079zm16.032 15.562c-.159 1.323-.212 2.117-.159 2.382l-.238 1.668v1.429c.106 3.123.212 5.32.318 6.59.264 1.059.397 1.853.397 2.382 0 .953-.741 1.72-2.223 2.303-.9.37-1.905.556-3.016.556s-1.931-.424-2.46-1.27l-.556-1.907-.318-1.826-.238-.635c0-.265-.079-.635-.238-1.111l-.158-2.224c0-1.27.026-2.382.079-3.335v-.556c0-.211.053-.529.159-.952.158-.424.185-.927.079-1.509.318-2.7.45-4.393.397-5.082 0-.688.053-1.402.159-2.144a8.979 8.979 0 000-2.382c.264-.952.45-1.879.555-2.779-1.005-.053-2.725 0-5.159.16-2.646.158-5.477.529-8.493 1.11-.211.636-.344 1.377-.397 2.224-.052.847-.132 1.932-.238 3.255-.105 1.271-.158 2.224-.158 2.859v2.7c-.16 1.217-.212 2.011-.16 2.382l-.237 1.667v1.43c.106 3.123.211 5.293.317 6.51.265 1.06.397 1.88.397 2.462 0 .9-.74 1.667-2.222 2.302-1.164.318-2.25.477-3.254.477-.953 0-1.694-.397-2.223-1.191l-.555-1.906-.318-1.906-.238-.635c0-.211-.08-.555-.238-1.032l-.159-2.223c0-1.324.027-2.435.08-3.335v-.556c0-.212.052-.53.158-.953.159-.423.185-.953.08-1.588.317-2.647.45-4.34.397-5.081 0-.742.052-1.456.158-2.144a8.382 8.382 0 000-2.303c.159-.741.265-1.164.318-1.27.053-.16.132-.662.238-1.509h-2.699c-1.27 0-2.063-.026-2.38-.08-1.535 0-2.514-.423-2.938-1.27-.317-.9-.105-1.905.635-3.017.106-.265.556-.424 1.35-.476 1.217 0 3.386-.318 6.508-.953.106-.424.159-.794.159-1.112l.397-2.779c0-.476.158-1.43.476-2.858 0-.689.106-1.35.317-1.986 0-.476.08-1.27.239-2.382.423-2.17.66-3.784.714-4.843.37-.688.582-1.138.635-1.35-.212-.265-.133-.635.238-1.112l.238-.476c.106-.635.847-1.614 2.222-2.938l2.064-1.19c.318-.424 1.587-.98 3.81-1.668.476-.265 1.481-.16 3.016.317.159.053.608.053 1.35 0 .793-.053 1.401 0 1.825.16.423.158.714.237.873.237l1.825.238c2.434.794 4.18 1.535 5.239 2.224.317-.53.74-1.033 1.27-1.509.529-.53.952-.847 1.27-.953l1.428-.953c.582-.635 1.773-1.138 3.572-1.508 1.852-.37 3.44-.344 4.762.08.688 0 1.244.078 1.667.237.423.16.741.238.953.238l1.905.318c1.799.741 2.83 1.323 3.095 1.747.265.37.344.74.238 1.111-.635 1.906-2.064 2.7-4.286 2.383l-3.413.158c-1.746.636-2.99 1.72-3.73 3.256-.9 1.323-1.508 2.938-1.826 4.843-.317 1.853-.555 2.991-.714 3.415-.106.423-.238.9-.397 1.429-.159.37-.344 1.111-.556 2.223-.211 1.059-.238 1.72-.079 1.985.53 0 .953-.026 1.27-.08.37-.37 1.27-.396 2.699-.079l1.587-.08c2.91 0 4.683.53 5.318 1.589.37.53.344 1.19-.08 1.985-.37.741-.925 1.244-1.666 1.509l-7.7.952-2.46.477c-.264.741-.423 1.614-.476 2.62a75.377 75.377 0 01-.238 3.176c-.106 1.112-.159 1.959-.159 2.541v2.7zM96.315 59.272c-.106-.265-.476-.37-1.111-.318-.582.053-1.032.37-1.35.953-2.17 3.44-3.333 7.12-3.492 11.037 1.8.424 3.334-.37 4.604-2.382 1.64-5.188 2.09-8.284 1.349-9.29zm-6.191 31.522l-.794-.158-1.11-1.112a.78.78 0 01-.715-.397c-.582-.688-1.64-2.064-3.175-4.129l-1.19-4.367c0-.847-.16-1.588-.477-2.223-.529-2.382-.846-3.732-.952-4.05-.106-.37-.186-1.35-.239-2.938 0-1.588.08-2.752.239-3.493.158-1.006 1.137-3.494 2.936-7.464.477-.476.768-1.112.873-1.906l1.27-1.826c1.164-1.376 2.408-2.382 3.73-3.017 0-.106.9-.37 2.7-.794.37-.053 1.216.08 2.54.397 3.174.74 5.158 1.667 5.952 2.779l.238.397c1.006 1.43 1.588 3.626 1.746 6.59-.158 1.324-.291 2.435-.396 3.335-.106.9-.688 2.541-1.747 4.923-.793 1.482-1.56 2.673-2.301 3.573-1.164.847-1.958 1.27-2.381 1.27-.212.106-.662.16-1.35.16h-1.825c-.16-.054-.503-.08-1.032-.08-.53 0-1.297-.132-2.302-.397 0 1.164.318 2.832.953 5.002.687 2.118 1.243 3.415 1.666 3.89 1.112.848 1.985 1.404 2.62 1.668.635.265 1.481.318 2.54.16 1.058-.213 1.825-.583 2.301-1.112l2.064-2.541c1.323-1.8 2.672-1.959 4.048-.477.635.688.873 1.377.714 2.065-.106.635-.635 1.932-1.587 3.89-.794 1.27-1.641 2.33-2.54 3.176-1.641.847-2.619 1.27-2.937 1.27-.476.054-1.217-.026-2.222-.237-.53.264-1.429.238-2.699-.08 0-.105-.159-.185-.476-.238-.265 0-.635-.08-1.111-.238l.158-.08h-.952l-2.222-1.19h-.556zM130.361 85.475l-.476-1.35-.873-5.32c-.264-1.006-.397-1.906-.397-2.7l.318-3.493c0-.583.026-.9.079-.953-.635 0-1.587.767-2.857 2.302a14.61 14.61 0 00-.476.794c-2.223 3.547-3.546 7.808-3.969 12.784-.423.9-.979 1.35-1.667 1.35-1.428-.318-2.222-.477-2.381-.477l-.555.08h-1.032c-1.217-.106-2.011-.582-2.381-1.43-.212-.264-.318-.952-.318-2.064v-1.111l-.238-4.368v-6.51c0-.742-.053-1.668-.159-2.78-.106-1.217-.132-3.123-.079-5.716.053-2.647.026-4.05-.08-4.209-.105-.212-.158-.476-.158-.794 0-.317.079-.635.238-.953.159-.317.873-.661 2.143-1.032.688-.423 1.27-.635 1.746-.635.741.159 1.693.476 2.857.953.794.158 1.191.926 1.191 2.302.106 2.277.106 3.917 0 4.923-.053 1.006-.026 3.044.079 6.114 3.916-7.516 7.408-12.042 10.477-13.577.265-.265.662-.397 1.191-.397s1.138.264 1.825.794c.688.529 1.165.873 1.429 1.032.265.159.556.423.873.794.371.37.662.608.873.714.635 1.06.768 3.547.397 7.464a80.275 80.275 0 01-.159 1.588c-.053.424-.079 1.377-.079 2.859s.026 2.514.079 3.096c.159 1.853.238 2.938.238 3.256l.397 3.017c.529 1.218.794 2.17.794 2.859.053.635.529 1.667 1.429 3.096.37.794.211 1.43-.477 1.906-1.058.53-1.64.741-1.746.635-.053-.053-.344 0-.873.159-.529.212-1.481.264-2.857.159-.688-.16-1.376-.583-2.064-1.27l-1.19-1.192a5.905 5.905 0 01-.873-2.064c-.265-.265-.344-.477-.239-.635zM130.045 2.491c-1.999.263-4.04.459-5.95 1.179-.915.345-1.684.972-2.505 1.487-1.389.871-2.847 1.805-3.948 3.035-1.03 1.15-1.769 2.641-2.324 4.072-.641 1.654-1.222 3.468-1.475 5.221-.112.777-.265 1.5-.168 2.298.322 2.656 2.065 4.332 4.365 5.454 1.398.683 2.592 1.057 4.176.898.56-.056 1.11-.211 1.67-.28.74-.089 1.585-.1 2.297-.319.491-.15.894-.453 1.357-.66 1.167-.521 2.305-1.01 3.445-1.596 1.313-.676 2.763-1.21 3.967-2.086 1.577-1.148 2.819-3.105 3.641-4.857.281-.6.404-1.245.578-1.88.642-2.337.897-4.814-.079-7.102-.446-1.045-1.155-1.817-1.948-2.61-.539-.54-1.094-1.075-1.775-1.435-.779-.412-1.754-.539-2.61-.687-.904-.158-1.792-.253-2.714-.132z" fill="#fff"/><path d="M142.99 4.371c.187.65.537 1.251.788 1.88.473 1.182.82 2.402 1.046 3.655.56 3.101.253 6.529-.792 9.503-.555 1.58-1.37 3.067-2.041 4.595-1.063 2.425-1.958 4.911-4.221 6.497-.45.316-.971.453-1.461.686-1.397.665-3.052 1.32-4.594 1.562-.553.087-1.107-.126-1.67-.046-2.055.293-3.95.73-6.054.586-2.365-.162-4.824-.851-6.89-2.019a21.682 21.682 0 01-1.984-1.253c-.482-.347-.911-.767-1.461-1 .397.892 1.227 1.387 1.861 2.089 1.442 1.597 2.891 3.18 4.508 4.608 1.682 1.486 3.253 3.346 5.427 4.127 1.337.48 2.672.577 4.071.673 1.167.08 2.378.194 3.55.077 2.216-.222 4.376-1.17 6.367-2.11 1.569-.74 3.107-1.45 4.367-2.694 2.249-2.22 3.63-4.81 4.799-7.71.666-1.652 1.285-3.327 1.464-5.117.117-1.165-.06-2.49-.173-3.655-.23-2.373-.733-4.586-1.675-6.788-.545-1.276-1.289-2.425-1.903-3.655a18.986 18.986 0 00-1.985-3.133c-.388-.505-.756-1.077-1.344-1.358z" fill="#fff"/></svg>