<?xml version="1.0" encoding="UTF-8" standalone="no"?>
<svg
   xmlns:dc="http://purl.org/dc/elements/1.1/"
   xmlns:cc="http://creativecommons.org/ns#"
   xmlns:rdf="http://www.w3.org/1999/02/22-rdf-syntax-ns#"
   xmlns:svg="http://www.w3.org/2000/svg"
   xmlns="http://www.w3.org/2000/svg"
   xmlns:sodipodi="http://sodipodi.sourceforge.net/DTD/sodipodi-0.dtd"
   xmlns:inkscape="http://www.inkscape.org/namespaces/inkscape"
   width="42"
   height="46"
   fill="none"
   version="1.1"
   id="svg6"
   sodipodi:docname="offen-brand-black.svg"
   inkscape:version="0.92.4 (5da689c313, 2019-01-14)">
  <metadata
     id="metadata12">
    <rdf:RDF>
      <cc:Work
         rdf:about="">
        <dc:format>image/svg+xml</dc:format>
        <dc:type
           rdf:resource="http://purl.org/dc/dcmitype/StillImage" />
        <dc:title></dc:title>
      </cc:Work>
    </rdf:RDF>
  </metadata>
  <defs
     id="defs10" />
  <sodipodi:namedview
     pagecolor="#ffffff"
     bordercolor="#666666"
     borderopacity="1"
     objecttolerance="10"
     gridtolerance="10"
     guidetolerance="10"
     inkscape:pageopacity="0"
     inkscape:pageshadow="2"
     inkscape:window-width="1753"
     inkscape:window-height="975"
     id="namedview8"
     showgrid="false"
     inkscape:zoom="5.1304348"
     inkscape:cx="20.422023"
     inkscape:cy="23"
     inkscape:window-x="0"
     inkscape:window-y="0"
     inkscape:window-maximized="0"
     inkscape:current-layer="svg6" />
  <path
     d="M19.276 1.347c-2.215.302-4.477.527-6.595 1.354-1.013.396-1.866 1.117-2.776 1.709-1.54 1-3.155 2.074-4.376 3.487-1.141 1.321-1.96 3.034-2.575 4.677-.711 1.901-1.355 3.985-1.635 6-.124.891-.294 1.722-.186 2.639.357 3.051 2.288 4.976 4.838 6.266 1.549.784 2.872 1.214 4.628 1.032.621-.065 1.23-.243 1.851-.321.82-.103 1.757-.116 2.545-.367.545-.174.991-.52 1.505-.759 1.293-.599 2.555-1.16 3.818-1.833 1.455-.777 3.062-1.392 4.396-2.397 1.749-1.319 3.126-3.567 4.036-5.58.312-.69.448-1.43.642-2.16.71-2.685.994-5.53-.089-8.159-.494-1.2-1.28-2.088-2.159-2.999-.597-.62-1.212-1.235-1.967-1.648-.864-.473-1.944-.62-2.892-.79-1.002-.18-1.987-.29-3.009-.15z"
     fill="#fff"
     id="path2"
     style="fill:#39352a;fill-opacity:1" />
  <path
     d="M33.623 3.507c.208.747.596 1.437.874 2.16.524 1.358.909 2.759 1.16 4.199.62 3.562.28 7.5-.878 10.918-.615 1.814-1.518 3.523-2.262 5.279-1.18 2.785-2.17 5.642-4.679 7.464-.499.363-1.075.52-1.62.788-1.547.764-3.382 1.517-5.09 1.794-.614.1-1.228-.144-1.852-.052-2.277.336-4.378.839-6.71.673-2.62-.186-5.346-.978-7.637-2.32a23.884 23.884 0 01-2.198-1.44c-.534-.398-1.01-.881-1.62-1.148.44 1.024 1.36 1.593 2.063 2.4 1.598 1.834 3.205 3.653 4.997 5.294 1.864 1.706 3.605 3.844 6.015 4.741 1.482.552 2.961.663 4.512.773 1.293.092 2.635.223 3.934.088 2.456-.254 4.85-1.343 7.058-2.423 1.738-.851 3.443-1.667 4.84-3.096 2.492-2.55 4.023-5.526 5.318-8.857.738-1.898 1.425-3.823 1.623-5.88.13-1.337-.067-2.86-.192-4.198-.254-2.727-.813-5.27-1.856-7.799-.604-1.466-1.429-2.786-2.11-4.2a21.995 21.995 0 00-2.2-3.598c-.43-.58-.838-1.237-1.49-1.56z"
     fill="#fff"
     id="path4"
     style="fill:#39352a;fill-opacity:1" />
</svg>
