<svg width="60" height="60" viewBox="0 0 60 60" fill="none" xmlns="http://www.w3.org/2000/svg">
<g clip-path="url(#clip0_310_16)">
<rect width="60" height="60" rx="4" fill="#FFFCEB"/>
<path d="M28.2447 14.3993C26.6801 14.6092 25.0831 14.7653 23.5883 15.3408C22.8726 15.6163 22.2706 16.1175 21.6277 16.5293C20.5411 17.2255 19.4004 17.9718 18.5384 18.9547C17.7323 19.8738 17.1544 21.0649 16.7201 22.2078C16.2179 23.5299 15.7632 24.9791 15.5655 26.3801C15.478 27.0004 15.3585 27.5781 15.4342 28.2159C15.6862 30.3383 17.0501 31.6773 18.8502 32.5745C19.9437 33.1195 20.8782 33.4185 22.1178 33.2918C22.5565 33.2471 22.9866 33.123 23.4249 33.0687C24.0039 32.997 24.6653 32.9883 25.2221 32.8134C25.6063 32.6928 25.9216 32.4513 26.2841 32.2859C27.1976 31.869 28.0881 31.4792 28.9799 31.0104C30.0076 30.4702 31.1423 30.0428 32.0842 29.3433C33.3188 28.4264 34.2908 26.8623 34.9336 25.4622C35.1538 24.9826 35.2499 24.4677 35.3864 23.9602C35.8885 22.0932 36.0883 20.1136 35.3243 18.2859C34.975 17.4504 34.4203 16.8334 33.7997 16.1997C33.378 15.7692 32.9439 15.341 32.4109 15.0534C31.8009 14.7243 31.0382 14.6229 30.3686 14.504C29.6612 14.3785 28.9662 14.3026 28.2447 14.3993Z" fill="#333333"/>
<path d="M38.3744 15.9013C38.5209 16.4206 38.7945 16.9011 38.9913 17.4034C39.3612 18.3479 39.633 19.3226 39.8102 20.324C40.2485 22.8019 40.0077 25.5407 39.1901 27.9175C38.7562 29.1793 38.1182 30.3677 37.5933 31.5891C36.7607 33.5265 36.0607 35.5133 34.2898 36.7807C33.9374 37.0329 33.5303 37.1422 33.1462 37.3289C32.0532 37.8602 30.7581 38.3836 29.5517 38.5765C29.1187 38.6458 28.6852 38.4762 28.2447 38.5402C26.6365 38.7737 25.1536 39.1236 23.5066 39.0083C21.6565 38.8788 19.7319 38.328 18.115 37.3949C17.5812 37.0869 17.0611 36.7587 16.5628 36.3933C16.1854 36.1165 15.8495 35.7806 15.4191 35.5945C15.73 36.307 16.3791 36.7028 16.8754 37.2638C18.0041 38.5396 19.1381 39.805 20.4035 40.9459C21.7199 42.1328 22.9489 43.6197 24.6503 44.2438C25.6969 44.6278 26.7414 44.7045 27.8362 44.7811C28.7495 44.8449 29.6967 44.9364 30.6137 44.8427C32.3482 44.6657 34.0385 43.9085 35.5969 43.1572C36.8244 42.5653 38.0284 41.9977 39.0141 41.004C40.7738 39.23 41.8546 37.1608 42.7693 34.8435C43.2904 33.5235 43.7754 32.1851 43.9155 30.7547C44.0066 29.824 43.8681 28.7643 43.7799 27.8341C43.6002 25.9376 43.2059 24.1695 42.4694 22.4101C42.0425 21.3904 41.4604 20.4724 40.9801 19.4895C40.543 18.5948 40.0236 17.778 39.4267 16.9861C39.1225 16.5827 38.8347 16.1257 38.3744 15.9013Z" fill="#333333"/>
</g>
<defs>
<clipPath id="clip0_310_16">
<rect width="60" height="60" fill="white"/>
</clipPath>
</defs>
</svg>
