<svg width="150" height="44" viewBox="0 0 150 44" fill="none" xmlns="http://www.w3.org/2000/svg">
<path d="M66.1368 36.7347C62.6843 36.7347 60.0152 35.8404 58.1296 34.0517C56.244 32.2367 55.2481 29.5143 55.1419 25.8844C55.1153 25.0952 55.102 23.9773 55.102 22.5306C55.102 21.0839 55.1153 19.9791 55.1419 19.2163C55.2481 15.639 56.2706 12.9297 58.2093 11.0884C60.1746 9.24716 62.8171 8.32653 66.1368 8.32653C69.4565 8.32653 72.0857 9.24716 74.0244 11.0884C75.9631 12.9297 76.9856 15.639 77.0918 19.2163C77.145 20.7419 77.1715 21.8467 77.1715 22.5306C77.1715 23.1882 77.145 24.3061 77.0918 25.8844C76.9856 29.5143 75.9897 32.2367 74.1041 34.0517C72.2451 35.8404 69.5893 36.7347 66.1368 36.7347ZM66.1368 33.4599C68.2614 33.4599 69.9611 32.8286 71.2359 31.566C72.5106 30.2771 73.2011 28.3175 73.3074 25.6871C73.3605 24.1088 73.387 23.0567 73.387 22.5306C73.387 21.9519 73.3605 20.8998 73.3074 19.3741C73.2011 16.7438 72.5106 14.7841 71.2359 13.4952C69.9611 12.2063 68.2614 11.5619 66.1368 11.5619C64.0122 11.5619 62.2992 12.2063 60.9979 13.4952C59.7231 14.7841 59.0459 16.7438 58.9662 19.3741C58.9396 20.137 58.9263 21.1891 58.9263 22.5306C58.9263 23.8458 58.9396 24.898 58.9662 25.6871C59.0459 28.3175 59.7231 30.2771 60.9979 31.566C62.2726 32.8286 63.9856 33.4599 66.1368 33.4599Z" fill="#F2C94C"/>
<path d="M85.5294 36.3401C85.2638 36.3401 85.0381 36.2612 84.8522 36.1034C84.6929 35.9193 84.6132 35.6957 84.6132 35.4327V18.8612H81.1872C80.9217 18.8612 80.6959 18.7823 80.51 18.6245C80.3507 18.4667 80.271 18.2562 80.271 17.9932V16.7306C80.271 16.4676 80.3507 16.2571 80.51 16.0993C80.6959 15.9152 80.9217 15.8231 81.1872 15.8231H84.6132V13.8503C84.6132 11.7197 85.1311 10.0757 86.1668 8.91837C87.2291 7.73469 88.9554 7.14286 91.3456 7.14286H93.6959C93.9615 7.14286 94.174 7.23492 94.3333 7.41905C94.5192 7.57687 94.6122 7.7873 94.6122 8.05034V9.31292C94.6122 9.57596 94.5192 9.78639 94.3333 9.94422C94.174 10.102 93.9615 10.181 93.6959 10.181H91.4252C90.2036 10.181 89.3537 10.4966 88.8757 11.1279C88.3977 11.7592 88.1586 12.7324 88.1586 14.0476V15.8231H96.7235V13.8503C96.7235 11.7197 97.2414 10.0757 98.2771 8.91837C99.3394 7.73469 101.066 7.14286 103.456 7.14286H105.806C106.072 7.14286 106.284 7.23492 106.444 7.41905C106.603 7.57687 106.683 7.7873 106.683 8.05034V9.31292C106.683 9.57596 106.603 9.78639 106.444 9.94422C106.284 10.102 106.072 10.181 105.806 10.181H103.536C102.314 10.181 101.464 10.4966 100.986 11.1279C100.508 11.7592 100.269 12.7324 100.269 14.0476V15.8231H105.408C105.673 15.8231 105.886 15.9152 106.045 16.0993C106.205 16.2571 106.284 16.4676 106.284 16.7306V17.9932C106.284 18.2562 106.205 18.4667 106.045 18.6245C105.886 18.7823 105.673 18.8612 105.408 18.8612H100.269V35.4327C100.269 35.6957 100.176 35.9193 99.9901 36.1034C99.8308 36.2612 99.6183 36.3401 99.3527 36.3401H97.5999C97.3343 36.3401 97.1219 36.2612 96.9625 36.1034C96.8032 35.9193 96.7235 35.6957 96.7235 35.4327V18.8612H88.1586V35.4327C88.1586 35.6957 88.0657 35.9193 87.8798 36.1034C87.7204 36.2612 87.508 36.3401 87.2424 36.3401H85.5294Z" fill="#F2C94C"/>
<path d="M117.669 36.7347C114.96 36.7347 112.796 35.9061 111.175 34.249C109.555 32.5655 108.666 30.2771 108.506 27.3837L108.467 26.0422L108.506 24.7401C108.666 21.8993 109.555 19.6372 111.175 17.9537C112.796 16.2703 114.96 15.4286 117.669 15.4286C120.59 15.4286 122.848 16.3492 124.441 18.1905C126.061 20.0317 126.871 22.5306 126.871 25.6871V26.3973C126.871 26.6603 126.778 26.8839 126.592 27.068C126.433 27.2258 126.22 27.3048 125.955 27.3048H112.132V27.6599C112.211 29.3696 112.742 30.8295 113.725 32.0395C114.708 33.2494 116.009 33.8544 117.629 33.8544C118.877 33.8544 119.886 33.6177 120.657 33.1442C121.453 32.6444 122.051 32.1315 122.449 31.6054C122.688 31.2898 122.874 31.1057 123.007 31.0531C123.14 30.9741 123.365 30.9347 123.684 30.9347H125.437C125.676 30.9347 125.875 31.0005 126.035 31.132C126.22 31.2635 126.313 31.4345 126.313 31.6449C126.313 32.2236 125.955 32.9206 125.238 33.7361C124.521 34.5515 123.498 35.2617 122.17 35.8667C120.869 36.4454 119.369 36.7347 117.669 36.7347ZM123.246 24.6218V24.5034C123.246 22.6621 122.741 21.1628 121.732 20.0054C120.723 18.8481 119.369 18.2694 117.669 18.2694C115.943 18.2694 114.588 18.8481 113.606 20.0054C112.623 21.1628 112.132 22.6621 112.132 24.5034V24.6218H123.246Z" fill="#F2C94C"/>
<path d="M132.631 36.3401C132.366 36.3401 132.14 36.2612 131.954 36.1034C131.795 35.9193 131.715 35.6957 131.715 35.4327V16.7306C131.715 16.4676 131.795 16.2571 131.954 16.0993C132.14 15.9152 132.366 15.8231 132.631 15.8231H134.344C134.636 15.8231 134.862 15.902 135.021 16.0599C135.181 16.2177 135.26 16.4413 135.26 16.7306V18.4667C136.057 17.4934 136.973 16.7438 138.009 16.2177C139.071 15.6916 140.386 15.4286 141.953 15.4286C144.503 15.4286 146.481 16.244 147.889 17.8748C149.296 19.4794 150 21.61 150 24.2667V35.4327C150 35.6957 149.907 35.9193 149.721 36.1034C149.562 36.2612 149.349 36.3401 149.084 36.3401H147.251C146.986 36.3401 146.76 36.2612 146.574 36.1034C146.415 35.9193 146.335 35.6957 146.335 35.4327V24.5034C146.335 22.6095 145.87 21.1365 144.941 20.0844C144.011 19.0322 142.683 18.5061 140.957 18.5061C139.257 18.5061 137.903 19.0454 136.894 20.1238C135.885 21.176 135.38 22.6358 135.38 24.5034V35.4327C135.38 35.6957 135.287 35.9193 135.101 36.1034C134.942 36.2612 134.729 36.3401 134.464 36.3401H132.631Z" fill="#F2C94C"/>
<path d="M18.3583 0.0630237C16.1204 0.364669 13.836 0.589072 11.6979 1.41617C10.6742 1.8122 9.81309 2.53255 8.89348 3.12456C7.33925 4.12509 5.70755 5.19782 4.47466 6.61057C3.32163 7.93157 2.49488 9.64356 1.8738 11.2864C1.15536 13.1867 0.505049 15.2695 0.222215 17.2833C0.0969838 18.1749 -0.0738919 19.0052 0.0344024 19.9219C0.394815 22.9724 2.34581 24.897 4.92057 26.1865C6.48472 26.9699 7.82137 27.3997 9.59458 27.2176C10.2221 27.1533 10.8373 26.975 11.4642 26.8969C12.2924 26.7939 13.2384 26.7813 14.0349 26.53C14.5844 26.3566 15.0355 26.0095 15.5539 25.7718C16.8606 25.1726 18.1343 24.6123 19.41 23.9385C20.8801 23.162 22.503 22.5477 23.8503 21.5423C25.6163 20.2244 27.0067 17.9764 27.9261 15.9639C28.2411 15.2747 28.3786 14.5345 28.5739 13.8051C29.292 11.1216 29.5778 8.27626 28.4849 5.64926C27.9854 4.44844 27.1919 3.56162 26.3042 2.65081C25.701 2.03193 25.08 1.41652 24.3177 1.00322C23.4452 0.53018 22.3542 0.384337 21.3965 0.213544C20.3845 0.0331581 19.3905 -0.0759837 18.3583 0.0630237Z" fill="#F2C94C"/>
<path d="M32.8478 2.22191C33.0573 2.96829 33.4487 3.65889 33.7301 4.3808C34.2592 5.73838 34.6481 7.13937 34.9015 8.57863C35.5284 12.1402 35.184 16.0768 34.0145 19.493C33.3938 21.3066 32.4813 23.0147 31.7305 24.7703C30.5395 27.5549 29.5382 30.4105 27.0053 32.2322C26.5012 32.5947 25.9188 32.7518 25.3694 33.0202C23.806 33.7839 21.9535 34.5361 20.228 34.8134C19.6085 34.913 18.9884 34.6692 18.3584 34.7611C16.058 35.0968 13.9369 35.5997 11.581 35.434C8.93473 35.2478 6.18174 34.4562 3.86892 33.1151C3.10549 32.6724 2.36155 32.2006 1.64876 31.6754C1.10887 31.2775 0.62844 30.7948 0.0128618 30.5273C0.457513 31.5513 1.38593 32.1202 2.09588 32.9265C3.71033 34.7603 5.33247 36.5792 7.14248 38.2189C9.02541 39.9249 10.7833 42.0621 13.2169 42.9591C14.714 43.511 16.2081 43.6212 17.7741 43.7313C19.0804 43.8231 20.4354 43.9546 21.747 43.8199C24.228 43.5654 26.6457 42.4772 28.8749 41.3973C30.6307 40.5466 32.3528 39.7308 33.7627 38.3024C36.2798 35.7527 37.8258 32.7786 39.1342 29.4479C39.8796 27.5506 40.5733 25.6269 40.7736 23.5709C40.904 22.2332 40.7058 20.7101 40.5798 19.3731C40.3227 16.6472 39.7587 14.1059 38.7051 11.5771C38.0946 10.1114 37.2619 8.792 36.575 7.37925C35.9497 6.09328 35.2068 4.9192 34.3529 3.78111C33.9179 3.20121 33.5061 2.54442 32.8478 2.22191Z" fill="#F2C94C"/>
</svg>
